<svg width="960" height="600" version="1.1" xmlns="http://www.w3.org/2000/svg"><g></g><g transform="translate(480,300)scale(1,1)"><text text-anchor="middle" transform="translate(-439,41)rotate(24.999999711185435)scale(1.000000030164656,1.000000030164656)" style="font-size: 10px; font-family: Impact; fill: rgb(82, 84, 163);">words</text><text text-anchor="middle" transform="translate(-241,-159)rotate(24.999999711185435)scale(1.000000030164656,1.000000030164656)" style="font-size: 10px; font-family: Impact; fill: rgb(99, 121, 57);">layout</text><text text-anchor="middle" transform="translate(-446,-59)rotate(24.999999711185435)scale(1.000000030164656,1.000000030164656)" style="font-size: 10px; font-family: Impact; fill: rgb(140, 162, 82);">algorithm</text><text text-anchor="middle" transform="translate(21,264)rotate(24.999999711185435)scale(1.000000030164656,1.000000030164656)" style="font-size: 24px; font-family: Impact; fill: rgb(140, 109, 49);">step</text><text text-anchor="middle" transform="translate(76,-206)rotate(24.999999711185435)scale(1.000000030164656,1.000000030164656)" style="font-size: 24px; font-family: Impact; fill: rgb(123, 65, 115);">Time</text><text text-anchor="middle" transform="translate(-414,-9)rotate(24.999999711185435)scale(1.000000030164656,1.000000030164656)" style="font-size: 24px; font-family: Impact; fill: rgb(206, 109, 189);">even</text><text text-anchor="middle" transform="translate(-411,254)rotate(24.999999711185435)scale(1.000000030164656,1.000000030164656)" style="font-size: 24px; font-family: Impact; fill: rgb(222, 158, 214);">simple</text><text text-anchor="middle" transform="translate(438,156)rotate(24.999999711185435)scale(1.000000030164656,1.000000030164656)" style="font-size: 10px; font-family: Impact; fill: rgb(82, 84, 163);">previously</text><text text-anchor="middle" transform="translate(203,171)rotate(24.999999711185435)scale(1.000000030164656,1.000000030164656)" style="font-size: 24px; font-family: Impact; fill: rgb(206, 219, 156);">data</text><text text-anchor="middle" transform="translate(-74,-286)rotate(24.999999711185435)scale(1.000000030164656,1.000000030164656)" style="font-size: 10px; font-family: Impact; fill: rgb(231, 150, 156);">always</text><text text-anchor="middle" transform="translate(423,-63)rotate(24.999999711185435)scale(1.000000030164656,1.000000030164656)" style="font-size: 24px; font-family: Impact; fill: rgb(123, 65, 115);">use</text><text text-anchor="middle" transform="translate(309,-181)rotate(24.999999711185435)scale(1.000000030164656,1.000000030164656)" style="font-size: 24px; font-family: Impact; fill: rgb(222, 158, 214);">browsers</text><text text-anchor="middle" transform="translate(392,-131)rotate(24.999999711185435)scale(1.000000030164656,1.000000030164656)" style="font-size: 24px; font-family: Impact; fill: rgb(189, 158, 57);">usually</text><text text-anchor="middle" transform="translate(233,12)rotate(24.999999711185435)scale(1.000000030164656,1.000000030164656)" style="font-size: 39px; font-family: Impact; fill: rgb(165, 81, 148);">One</text><text text-anchor="middle" transform="translate(173,-17)rotate(24.999999711185435)scale(1.000000030164656,1.000000030164656)" style="font-size: 33px; font-family: Impact; fill: rgb(107, 110, 207);">way</text><text text-anchor="middle" transform="translate(-133,177)rotate(24.999999711185435)scale(1.000000030164656,1.000000030164656)" style="font-size: 39px; font-family: Impact; fill: rgb(107, 110, 207);">using</text><text text-anchor="middle" transform="translate(313,209)rotate(24.999999711185435)scale(1.000000030164656,1.000000030164656)" style="font-size: 24px; font-family: Impact; fill: rgb(165, 81, 148);">made</text><text text-anchor="middle" transform="translate(-402,-26)rotate(24.999999711185435)scale(1.000000030164656,1.000000030164656)" style="font-size: 24px; font-family: Impact; fill: rgb(181, 207, 107);">thus</text><text text-anchor="middle" transform="translate(198,-89)rotate(24.999999711185435)scale(1.000000030164656,1.000000030164656)" style="font-size: 89px; font-family: Impact; fill: rgb(82, 84, 163);"></text><text text-anchor="middle" transform="translate(134,60)rotate(24.999999711185435)scale(1.000000030164656,1.000000030164656)" style="font-size: 99px; font-family: Impact; fill: rgb(107, 110, 207);">|</text><text text-anchor="middle" transform="translate(28,88)rotate(24.999999711185435)scale(1.000000030164656,1.000000030164656)" style="font-size: 74px; font-family: Impact; fill: rgb(156, 158, 222);">certificate</text><text text-anchor="middle" transform="translate(-141,65)rotate(24.999999711185435)scale(1.000000030164656,1.000000030164656)" style="font-size: 70px; font-family: Impact; fill: rgb(99, 121, 57);">key</text><text text-anchor="middle" transform="translate(-162,37)rotate(24.999999711185435)scale(1.000000030164656,1.000000030164656)" style="font-size: 70px; font-family: Impact; fill: rgb(140, 162, 82);">```</text><text text-anchor="middle" transform="translate(239,-95)rotate(24.999999711185435)scale(1.000000030164656,1.000000030164656)" style="font-size: 63px; font-family: Impact; fill: rgb(181, 207, 107);">OpenSSL</text><text text-anchor="middle" transform="translate(-38,132)rotate(24.999999711185435)scale(1.000000030164656,1.000000030164656)" style="font-size: 60px; font-family: Impact; fill: rgb(206, 219, 156);">client</text><text text-anchor="middle" transform="translate(109,2)rotate(24.999999711185435)scale(1.000000030164656,1.000000030164656)" style="font-size: 58px; font-family: Impact; fill: rgb(140, 109, 49);">file</text><text text-anchor="middle" transform="translate(-55,-21)rotate(24.999999711185435)scale(1.000000030164656,1.000000030164656)" style="font-size: 58px; font-family: Impact; fill: rgb(189, 158, 57);">eagerclient</text><text text-anchor="middle" transform="translate(-1,-66)rotate(24.999999711185435)scale(1.000000030164656,1.000000030164656)" style="font-size: 58px; font-family: Impact; fill: rgb(231, 186, 82);">private</text><text text-anchor="middle" transform="translate(-262,61)rotate(24.999999711185435)scale(1.000000030164656,1.000000030164656)" style="font-size: 56px; font-family: Impact; fill: rgb(231, 203, 148);">certificates</text><text text-anchor="middle" transform="translate(223,55)rotate(24.999999711185435)scale(1.000000030164656,1.000000030164656)" style="font-size: 56px; font-family: Impact; fill: rgb(132, 60, 57);">ca</text><text text-anchor="middle" transform="translate(187,91)rotate(24.999999711185435)scale(1.000000030164656,1.000000030164656)" style="font-size: 53px; font-family: Impact; fill: rgb(173, 73, 74);">side</text><text text-anchor="middle" transform="translate(-244,120)rotate(24.999999711185435)scale(1.000000030164656,1.000000030164656)" style="font-size: 50px; font-family: Impact; fill: rgb(214, 97, 107);">Python</text><text text-anchor="middle" transform="translate(80,-81)rotate(24.999999711185435)scale(1.000000030164656,1.000000030164656)" style="font-size: 50px; font-family: Impact; fill: rgb(231, 150, 156);">server</text><text text-anchor="middle" transform="translate(-269,-187)rotate(24.999999711185435)scale(1.000000030164656,1.000000030164656)" style="font-size: 50px; font-family: Impact; fill: rgb(123, 65, 115);">pictureserver</text><text text-anchor="middle" transform="translate(241,159)rotate(24.999999711185435)scale(1.000000030164656,1.000000030164656)" style="font-size: 47px; font-family: Impact; fill: rgb(165, 81, 148);">prove</text><text text-anchor="middle" transform="translate(83,154)rotate(24.999999711185435)scale(1.000000030164656,1.000000030164656)" style="font-size: 47px; font-family: Impact; fill: rgb(206, 109, 189);">new</text><text text-anchor="middle" transform="translate(-44,-144)rotate(24.999999711185435)scale(1.000000030164656,1.000000030164656)" style="font-size: 47px; font-family: Impact; fill: rgb(222, 158, 214);">kittyca</text><text text-anchor="middle" transform="translate(38,-145)rotate(24.999999711185435)scale(1.000000030164656,1.000000030164656)" style="font-size: 43px; font-family: Impact; fill: rgb(57, 59, 121);">3</text><text text-anchor="middle" transform="translate(217,-37)rotate(24.999999711185435)scale(1.000000030164656,1.000000030164656)" style="font-size: 43px; font-family: Impact; fill: rgb(82, 84, 163);">used</text><text text-anchor="middle" transform="translate(-84,155)rotate(24.999999711185435)scale(1.000000030164656,1.000000030164656)" style="font-size: 43px; font-family: Impact; fill: rgb(107, 110, 207);">signs</text><text text-anchor="middle" transform="translate(20,200)rotate(24.999999711185435)scale(1.000000030164656,1.000000030164656)" style="font-size: 43px; font-family: Impact; fill: rgb(156, 158, 222);">config</text><text text-anchor="middle" transform="translate(-237,-15)rotate(24.999999711185435)scale(1.000000030164656,1.000000030164656)" style="font-size: 43px; font-family: Impact; fill: rgb(99, 121, 57);">sha256</text><text text-anchor="middle" transform="translate(-84,-115)rotate(24.999999711185435)scale(1.000000030164656,1.000000030164656)" style="font-size: 39px; font-family: Impact; fill: rgb(140, 162, 82);">1</text><text text-anchor="middle" transform="translate(117,52)rotate(24.999999711185435)scale(1.000000030164656,1.000000030164656)" style="font-size: 39px; font-family: Impact; fill: rgb(181, 207, 107);">2</text><text text-anchor="middle" transform="translate(338,137)rotate(24.999999711185435)scale(1.000000030164656,1.000000030164656)" style="font-size: 39px; font-family: Impact; fill: rgb(206, 219, 156);">signing</text><text text-anchor="middle" transform="translate(-141,-174)rotate(24.999999711185435)scale(1.000000030164656,1.000000030164656)" style="font-size: 39px; font-family: Impact; fill: rgb(140, 109, 49);">CSC</text><text text-anchor="middle" transform="translate(-374,49)rotate(24.999999711185435)scale(1.000000030164656,1.000000030164656)" style="font-size: 39px; font-family: Impact; fill: rgb(189, 158, 57);">identity</text><text text-anchor="middle" transform="translate(-266,-77)rotate(24.999999711185435)scale(1.000000030164656,1.000000030164656)" style="font-size: 39px; font-family: Impact; fill: rgb(231, 186, 82);">webpage</text><text text-anchor="middle" transform="translate(-358,-39)rotate(24.999999711185435)scale(1.000000030164656,1.000000030164656)" style="font-size: 39px; font-family: Impact; fill: rgb(231, 203, 148);">HTTPS</text><text text-anchor="middle" transform="translate(68,-175)rotate(24.999999711185435)scale(1.000000030164656,1.000000030164656)" style="font-size: 39px; font-family: Impact; fill: rgb(132, 60, 57);">generate</text><text text-anchor="middle" transform="translate(113,-216)rotate(24.999999711185435)scale(1.000000030164656,1.000000030164656)" style="font-size: 39px; font-family: Impact; fill: rgb(173, 73, 74);">eagerclientkey</text><text text-anchor="middle" transform="translate(-252,158)rotate(24.999999711185435)scale(1.000000030164656,1.000000030164656)" style="font-size: 39px; font-family: Impact; fill: rgb(214, 97, 107);">eagerclientcrt</text><text text-anchor="middle" transform="translate(150,220)rotate(24.999999711185435)scale(1.000000030164656,1.000000030164656)" style="font-size: 39px; font-family: Impact; fill: rgb(231, 150, 156);">opensslcnf</text><text text-anchor="middle" transform="translate(305,13)rotate(24.999999711185435)scale(1.000000030164656,1.000000030164656)" style="font-size: 33px; font-family: Impact; fill: rgb(123, 65, 115);">signed</text><text text-anchor="middle" transform="translate(-21,217)rotate(24.999999711185435)scale(1.000000030164656,1.000000030164656)" style="font-size: 33px; font-family: Impact; fill: rgb(165, 81, 148);">belongs</text><text text-anchor="middle" transform="translate(-207,215)rotate(24.999999711185435)scale(1.000000030164656,1.000000030164656)" style="font-size: 33px; font-family: Impact; fill: rgb(206, 109, 189);">Authority</text><text text-anchor="middle" transform="translate(127,-118)rotate(24.999999711185435)scale(1.000000030164656,1.000000030164656)" style="font-size: 33px; font-family: Impact; fill: rgb(222, 158, 214);">user</text><text text-anchor="middle" transform="translate(-236,19)rotate(24.999999711185435)scale(1.000000030164656,1.000000030164656)" style="font-size: 33px; font-family: Impact; fill: rgb(57, 59, 121);">make</text><text text-anchor="middle" transform="translate(286,-153)rotate(24.999999711185435)scale(1.000000030164656,1.000000030164656)" style="font-size: 33px; font-family: Impact; fill: rgb(82, 84, 163);">website</text><text text-anchor="middle" transform="translate(302,55)rotate(24.999999711185435)scale(1.000000030164656,1.000000030164656)" style="font-size: 33px; font-family: Impact; fill: rgb(107, 110, 207);">CSCs</text><text text-anchor="middle" transform="translate(179,193)rotate(24.999999711185435)scale(1.000000030164656,1.000000030164656)" style="font-size: 33px; font-family: Impact; fill: rgb(156, 158, 222);">users</text><text text-anchor="middle" transform="translate(114,238)rotate(24.999999711185435)scale(1.000000030164656,1.000000030164656)" style="font-size: 33px; font-family: Impact; fill: rgb(99, 121, 57);">Also</text><text text-anchor="middle" transform="translate(-132,-21)rotate(24.999999711185435)scale(1.000000030164656,1.000000030164656)" style="font-size: 33px; font-family: Impact; fill: rgb(140, 162, 82);">two</text><text text-anchor="middle" transform="translate(-193,-114)rotate(24.999999711185435)scale(1.000000030164656,1.000000030164656)" style="font-size: 33px; font-family: Impact; fill: rgb(181, 207, 107);">🔏</text><text text-anchor="middle" transform="translate(-77,242)rotate(24.999999711185435)scale(1.000000030164656,1.000000030164656)" style="font-size: 33px; font-family: Impact; fill: rgb(206, 219, 156);">general</text><text text-anchor="middle" transform="translate(-54,-196)rotate(24.999999711185435)scale(1.000000030164656,1.000000030164656)" style="font-size: 33px; font-family: Impact; fill: rgb(140, 109, 49);">table</text><text text-anchor="middle" transform="translate(-330,161)rotate(24.999999711185435)scale(1.000000030164656,1.000000030164656)" style="font-size: 33px; font-family: Impact; fill: rgb(189, 158, 57);">example</text><text text-anchor="middle" transform="translate(-299,-149)rotate(24.999999711185435)scale(1.000000030164656,1.000000030164656)" style="font-size: 33px; font-family: Impact; fill: rgb(231, 186, 82);">probably</text><text text-anchor="middle" transform="translate(-24,-225)rotate(24.999999711185435)scale(1.000000030164656,1.000000030164656)" style="font-size: 33px; font-family: Impact; fill: rgb(231, 203, 148);">self</text><text text-anchor="middle" transform="translate(247,198)rotate(24.999999711185435)scale(1.000000030164656,1.000000030164656)" style="font-size: 33px; font-family: Impact; fill: rgb(132, 60, 57);">like</text><text text-anchor="middle" transform="translate(362,4)rotate(24.999999711185435)scale(1.000000030164656,1.000000030164656)" style="font-size: 33px; font-family: Impact; fill: rgb(173, 73, 74);">generates</text><text text-anchor="middle" transform="translate(181,-229)rotate(24.999999711185435)scale(1.000000030164656,1.000000030164656)" style="font-size: 33px; font-family: Impact; fill: rgb(214, 97, 107);">kittycakey</text><text text-anchor="middle" transform="translate(399,-44)rotate(24.999999711185435)scale(1.000000030164656,1.000000030164656)" style="font-size: 33px; font-family: Impact; fill: rgb(231, 150, 156);">pictures</text><text text-anchor="middle" transform="translate(374,-104)rotate(24.999999711185435)scale(1.000000030164656,1.000000030164656)" style="font-size: 33px; font-family: Impact; fill: rgb(165, 81, 148);">steps</text><text text-anchor="middle" transform="translate(-139,-226)rotate(24.999999711185435)scale(1.000000030164656,1.000000030164656)" style="font-size: 33px; font-family: Impact; fill: rgb(206, 109, 189);">genrsa</text><text text-anchor="middle" transform="translate(54,253)rotate(24.999999711185435)scale(1.000000030164656,1.000000030164656)" style="font-size: 33px; font-family: Impact; fill: rgb(222, 158, 214);">req</text><text text-anchor="middle" transform="translate(-396,77)rotate(24.999999711185435)scale(1.000000030164656,1.000000030164656)" style="font-size: 33px; font-family: Impact; fill: rgb(57, 59, 121);">thing</text><text text-anchor="middle" transform="translate(378,59)rotate(24.999999711185435)scale(1.000000030164656,1.000000030164656)" style="font-size: 33px; font-family: Impact; fill: rgb(82, 84, 163);">still</text><text text-anchor="middle" transform="translate(240,-63)rotate(24.999999711185435)scale(1.000000030164656,1.000000030164656)" style="font-size: 24px; font-family: Impact; fill: rgb(107, 110, 207);">4</text><text text-anchor="middle" transform="translate(199,-81)rotate(24.999999711185435)scale(1.000000030164656,1.000000030164656)" style="font-size: 24px; font-family: Impact; fill: rgb(156, 158, 222);">5</text><text text-anchor="middle" transform="translate(9,-156)rotate(24.999999711185435)scale(1.000000030164656,1.000000030164656)" style="font-size: 24px; font-family: Impact; fill: rgb(99, 121, 57);">8</text><text text-anchor="middle" transform="translate(-215,-132)rotate(24.999999711185435)scale(1.000000030164656,1.000000030164656)" style="font-size: 24px; font-family: Impact; fill: rgb(140, 162, 82);">13</text><text text-anchor="middle" transform="translate(-286,-10)rotate(24.999999711185435)scale(1.000000030164656,1.000000030164656)" style="font-size: 24px; font-family: Impact; fill: rgb(181, 207, 107);">14</text><text text-anchor="middle" transform="translate(51,169)rotate(24.999999711185435)scale(1.000000030164656,1.000000030164656)" style="font-size: 24px; font-family: Impact; fill: rgb(206, 219, 156);">121</text><text text-anchor="middle" transform="translate(263,-136)rotate(24.999999711185435)scale(1.000000030164656,1.000000030164656)" style="font-size: 24px; font-family: Impact; fill: rgb(140, 109, 49);">122</text><text text-anchor="middle" transform="translate(279,72)rotate(24.999999711185435)scale(1.000000030164656,1.000000030164656)" style="font-size: 24px; font-family: Impact; fill: rgb(189, 158, 57);">2048</text><text text-anchor="middle" transform="translate(178,34)rotate(24.999999711185435)scale(1.000000030164656,1.000000030164656)" style="font-size: 24px; font-family: Impact; fill: rgb(231, 186, 82);">SSL</text><text text-anchor="middle" transform="translate(389,-19)rotate(24.999999711185435)scale(1.000000030164656,1.000000030164656)" style="font-size: 24px; font-family: Impact; fill: rgb(231, 203, 148);">clientside</text><text text-anchor="middle" transform="translate(-275,248)rotate(24.999999711185435)scale(1.000000030164656,1.000000030164656)" style="font-size: 24px; font-family: Impact; fill: rgb(132, 60, 57);">process</text><text text-anchor="middle" transform="translate(374,85)rotate(24.999999711185435)scale(1.000000030164656,1.000000030164656)" style="font-size: 24px; font-family: Impact; fill: rgb(173, 73, 74);">request</text><text text-anchor="middle" transform="translate(-425,133)rotate(24.999999711185435)scale(1.000000030164656,1.000000030164656)" style="font-size: 24px; font-family: Impact; fill: rgb(214, 97, 107);">CSR</text><text text-anchor="middle" transform="translate(-206,-206)rotate(24.999999711185435)scale(1.000000030164656,1.000000030164656)" style="font-size: 24px; font-family: Impact; fill: rgb(231, 150, 156);">person</text><text text-anchor="middle" transform="translate(-317,-135)rotate(24.999999711185435)scale(1.000000030164656,1.000000030164656)" style="font-size: 24px; font-family: Impact; fill: rgb(123, 65, 115);">comes</text><text text-anchor="middle" transform="translate(-424,103)rotate(24.999999711185435)scale(1.000000030164656,1.000000030164656)" style="font-size: 24px; font-family: Impact; fill: rgb(165, 81, 148);">p12</text><text text-anchor="middle" transform="translate(-426,-86)rotate(24.999999711185435)scale(1.000000030164656,1.000000030164656)" style="font-size: 24px; font-family: Impact; fill: rgb(206, 109, 189);">want</text><text text-anchor="middle" transform="translate(350,103)rotate(24.999999711185435)scale(1.000000030164656,1.000000030164656)" style="font-size: 24px; font-family: Impact; fill: rgb(222, 158, 214);">actual</text><text text-anchor="middle" transform="translate(333,163)rotate(24.999999711185435)scale(1.000000030164656,1.000000030164656)" style="font-size: 24px; font-family: Impact; fill: rgb(57, 59, 121);">simply</text><text text-anchor="middle" transform="translate(-229,-243)rotate(24.999999711185435)scale(1.000000030164656,1.000000030164656)" style="font-size: 24px; font-family: Impact; fill: rgb(82, 84, 163);">identify</text><text text-anchor="middle" transform="translate(-137,-258)rotate(24.999999711185435)scale(1.000000030164656,1.000000030164656)" style="font-size: 24px; font-family: Impact; fill: rgb(107, 110, 207);">generated</text><text text-anchor="middle" transform="translate(261,127)rotate(24.999999711185435)scale(1.000000030164656,1.000000030164656)" style="font-size: 24px; font-family: Impact; fill: rgb(156, 158, 222);">know</text><text text-anchor="middle" transform="translate(419,-147)rotate(24.999999711185435)scale(1.000000030164656,1.000000030164656)" style="font-size: 24px; font-family: Impact; fill: rgb(99, 121, 57);">things</text><text text-anchor="middle" transform="translate(-388,205)rotate(24.999999711185435)scale(1.000000030164656,1.000000030164656)" style="font-size: 24px; font-family: Impact; fill: rgb(140, 162, 82);">Convoluted</text><text text-anchor="middle" transform="translate(-382,-133)rotate(24.999999711185435)scale(1.000000030164656,1.000000030164656)" style="font-size: 24px; font-family: Impact; fill: rgb(181, 207, 107);">contains</text><text text-anchor="middle" transform="translate(-400,-174)rotate(24.999999711185435)scale(1.000000030164656,1.000000030164656)" style="font-size: 24px; font-family: Impact; fill: rgb(206, 219, 156);">reality</text><text text-anchor="middle" transform="translate(-118,260)rotate(24.999999711185435)scale(1.000000030164656,1.000000030164656)" style="font-size: 24px; font-family: Impact; fill: rgb(140, 109, 49);">Issue</text><text text-anchor="middle" transform="translate(-375,240)rotate(24.999999711185435)scale(1.000000030164656,1.000000030164656)" style="font-size: 24px; font-family: Impact; fill: rgb(189, 158, 57);">recommend</text><text text-anchor="middle" transform="translate(180,260)rotate(24.999999711185435)scale(1.000000030164656,1.000000030164656)" style="font-size: 24px; font-family: Impact; fill: rgb(231, 186, 82);">install</text><text text-anchor="middle" transform="translate(286,-251)rotate(24.999999711185435)scale(1.000000030164656,1.000000030164656)" style="font-size: 24px; font-family: Impact; fill: rgb(231, 203, 148);">kittycacrt</text><text text-anchor="middle" transform="translate(-30,-262)rotate(24.999999711185435)scale(1.000000030164656,1.000000030164656)" style="font-size: 24px; font-family: Impact; fill: rgb(132, 60, 57);">wants</text><text text-anchor="middle" transform="translate(-97,-269)rotate(24.999999711185435)scale(1.000000030164656,1.000000030164656)" style="font-size: 24px; font-family: Impact; fill: rgb(173, 73, 74);">creates</text><text text-anchor="middle" transform="translate(2,102)rotate(24.999999711185435)scale(1.000000030164656,1.000000030164656)" style="font-size: 24px; font-family: Impact; fill: rgb(214, 97, 107);">sends</text><text text-anchor="middle" transform="translate(293,241)rotate(24.999999711185435)scale(1.000000030164656,1.000000030164656)" style="font-size: 24px; font-family: Impact; fill: rgb(231, 150, 156);">accepts</text><text text-anchor="middle" transform="translate(273,-54)rotate(24.999999711185435)scale(1.000000030164656,1.000000030164656)" style="font-size: 24px; font-family: Impact; fill: rgb(123, 65, 115);">sent</text><text text-anchor="middle" transform="translate(109,267)rotate(24.999999711185435)scale(1.000000030164656,1.000000030164656)" style="font-size: 24px; font-family: Impact; fill: rgb(165, 81, 148);">add</text><text text-anchor="middle" transform="translate(-107,-137)rotate(24.999999711185435)scale(1.000000030164656,1.000000030164656)" style="font-size: 24px; font-family: Impact; fill: rgb(206, 109, 189);">CSA</text><text text-anchor="middle" transform="translate(-428,-128)rotate(24.999999711185435)scale(1.000000030164656,1.000000030164656)" style="font-size: 24px; font-family: Impact; fill: rgb(222, 158, 214);">days</text><text text-anchor="middle" transform="translate(421,135)rotate(24.999999711185435)scale(1.000000030164656,1.000000030164656)" style="font-size: 24px; font-family: Impact; fill: rgb(57, 59, 121);">notext</text><text text-anchor="middle" transform="translate(-136,-106)rotate(24.999999711185435)scale(1.000000030164656,1.000000030164656)" style="font-size: 24px; font-family: Impact; fill: rgb(82, 84, 163);">md</text><text text-anchor="middle" transform="translate(430,70)rotate(24.999999711185435)scale(1.000000030164656,1.000000030164656)" style="font-size: 24px; font-family: Impact; fill: rgb(107, 110, 207);">able</text><text text-anchor="middle" transform="translate(-175,-41)rotate(24.999999711185435)scale(1.000000030164656,1.000000030164656)" style="font-size: 24px; font-family: Impact; fill: rgb(156, 158, 222);">gist</text><text text-anchor="middle" transform="translate(421,171)rotate(24.999999711185435)scale(1.000000030164656,1.000000030164656)" style="font-size: 24px; font-family: Impact; fill: rgb(99, 121, 57);">keys</text><text text-anchor="middle" transform="translate(262,256)rotate(24.999999711185435)scale(1.000000030164656,1.000000030164656)" style="font-size: 24px; font-family: Impact; fill: rgb(181, 207, 107);">next</text><text text-anchor="middle" transform="translate(104,-56)rotate(24.999999711185435)scale(1.000000030164656,1.000000030164656)" style="font-size: 10px; font-family: Impact; fill: rgb(206, 219, 156);">6</text><text text-anchor="middle" transform="translate(-132,-136)rotate(24.999999711185435)scale(1.000000030164656,1.000000030164656)" style="font-size: 10px; font-family: Impact; fill: rgb(140, 109, 49);">7</text><text text-anchor="middle" transform="translate(-34,3)rotate(24.999999711185435)scale(1.000000030164656,1.000000030164656)" style="font-size: 10px; font-family: Impact; fill: rgb(189, 158, 57);">9</text><text text-anchor="middle" transform="translate(-52,66)rotate(24.999999711185435)scale(1.000000030164656,1.000000030164656)" style="font-size: 10px; font-family: Impact; fill: rgb(231, 186, 82);">10</text><text text-anchor="middle" transform="translate(-158,-121)rotate(24.999999711185435)scale(1.000000030164656,1.000000030164656)" style="font-size: 10px; font-family: Impact; fill: rgb(231, 203, 148);">11</text><text text-anchor="middle" transform="translate(-76,62)rotate(24.999999711185435)scale(1.000000030164656,1.000000030164656)" style="font-size: 10px; font-family: Impact; fill: rgb(132, 60, 57);">12</text><text text-anchor="middle" transform="translate(-14,11)rotate(24.999999711185435)scale(1.000000030164656,1.000000030164656)" style="font-size: 10px; font-family: Impact; fill: rgb(173, 73, 74);">15</text><text text-anchor="middle" transform="translate(-86,-84)rotate(24.999999711185435)scale(1.000000030164656,1.000000030164656)" style="font-size: 10px; font-family: Impact; fill: rgb(214, 97, 107);">16</text><text text-anchor="middle" transform="translate(-182,-66)rotate(24.999999711185435)scale(1.000000030164656,1.000000030164656)" style="font-size: 10px; font-family: Impact; fill: rgb(231, 150, 156);">17</text><text text-anchor="middle" transform="translate(-82,198)rotate(24.999999711185435)scale(1.000000030164656,1.000000030164656)" style="font-size: 10px; font-family: Impact; fill: rgb(123, 65, 115);">23</text><text text-anchor="middle" transform="translate(-58,-11)rotate(24.999999711185435)scale(1.000000030164656,1.000000030164656)" style="font-size: 10px; font-family: Impact; fill: rgb(165, 81, 148);">56</text><text text-anchor="middle" transform="translate(-62,-79)rotate(24.999999711185435)scale(1.000000030164656,1.000000030164656)" style="font-size: 10px; font-family: Impact; fill: rgb(206, 109, 189);">123</text><text text-anchor="middle" transform="translate(189,-100)rotate(24.999999711185435)scale(1.000000030164656,1.000000030164656)" style="font-size: 10px; font-family: Impact; fill: rgb(222, 158, 214);">375</text><text text-anchor="middle" transform="translate(264,103)rotate(24.999999711185435)scale(1.000000030164656,1.000000030164656)" style="font-size: 10px; font-family: Impact; fill: rgb(57, 59, 121);">4096</text><text text-anchor="middle" transform="translate(7,-48)rotate(24.999999711185435)scale(1.000000030164656,1.000000030164656)" style="font-size: 10px; font-family: Impact; fill: rgb(82, 84, 163);">7300</text><text text-anchor="middle" transform="translate(-30,-66)rotate(24.999999711185435)scale(1.000000030164656,1.000000030164656)" style="font-size: 10px; font-family: Impact; fill: rgb(107, 110, 207);">20171029</text><text text-anchor="middle" transform="translate(-269,-173)rotate(24.999999711185435)scale(1.000000030164656,1.000000030164656)" style="font-size: 10px; font-family: Impact; fill: rgb(156, 158, 222);">post</text><text text-anchor="middle" transform="translate(45,-30)rotate(24.999999711185435)scale(1.000000030164656,1.000000030164656)" style="font-size: 10px; font-family: Impact; fill: rgb(99, 121, 57);">comments</text><text text-anchor="middle" transform="translate(-130,13)rotate(24.999999711185435)scale(1.000000030164656,1.000000030164656)" style="font-size: 10px; font-family: Impact; fill: rgb(140, 162, 82);">true</text><text text-anchor="middle" transform="translate(-158,129)rotate(24.999999711185435)scale(1.000000030164656,1.000000030164656)" style="font-size: 10px; font-family: Impact; fill: rgb(181, 207, 107);">title</text><text text-anchor="middle" transform="translate(95,60)rotate(24.999999711185435)scale(1.000000030164656,1.000000030164656)" style="font-size: 10px; font-family: Impact; fill: rgb(206, 219, 156);">Issuing</text><text text-anchor="middle" transform="translate(-50,219)rotate(24.999999711185435)scale(1.000000030164656,1.000000030164656)" style="font-size: 10px; font-family: Impact; fill: rgb(140, 109, 49);">managing</text><text text-anchor="middle" transform="translate(-117,103)rotate(24.999999711185435)scale(1.000000030164656,1.000000030164656)" style="font-size: 10px; font-family: Impact; fill: rgb(189, 158, 57);">date</text><text text-anchor="middle" transform="translate(97,28)rotate(24.999999711185435)scale(1.000000030164656,1.000000030164656)" style="font-size: 10px; font-family: Impact; fill: rgb(231, 186, 82);">031100</text><text text-anchor="middle" transform="translate(-13,-169)rotate(24.999999711185435)scale(1.000000030164656,1.000000030164656)" style="font-size: 10px; font-family: Impact; fill: rgb(231, 203, 148);">+0300</text><text text-anchor="middle" transform="translate(-65,261)rotate(24.999999711185435)scale(1.000000030164656,1.000000030164656)" style="font-size: 10px; font-family: Impact; fill: rgb(132, 60, 57);">categories</text><text text-anchor="middle" transform="translate(-167,263)rotate(24.999999711185435)scale(1.000000030164656,1.000000030164656)" style="font-size: 10px; font-family: Impact; fill: rgb(173, 73, 74);">apache2</text><text text-anchor="middle" transform="translate(45,114)rotate(24.999999711185435)scale(1.000000030164656,1.000000030164656)" style="font-size: 10px; font-family: Impact; fill: rgb(214, 97, 107);">&lt;p</text><text text-anchor="middle" transform="translate(180,276)rotate(24.999999711185435)scale(1.000000030164656,1.000000030164656)" style="font-size: 10px; font-family: Impact; fill: rgb(231, 150, 156);">align=center&gt;</text><text text-anchor="middle" transform="translate(-263,-117)rotate(24.999999711185435)scale(1.000000030164656,1.000000030164656)" style="font-size: 10px; font-family: Impact; fill: rgb(123, 65, 115);">&lt;img</text><text text-anchor="middle" transform="translate(239,-150)rotate(24.999999711185435)scale(1.000000030164656,1.000000030164656)" style="font-size: 10px; font-family: Impact; fill: rgb(165, 81, 148);">&lt;p&gt;</text><text text-anchor="middle" transform="translate(79,-145)rotate(24.999999711185435)scale(1.000000030164656,1.000000030164656)" style="font-size: 10px; font-family: Impact; fill: rgb(206, 109, 189);">Glossary</text><text text-anchor="middle" transform="translate(3,-182)rotate(24.999999711185435)scale(1.000000030164656,1.000000030164656)" style="font-size: 10px; font-family: Impact; fill: rgb(222, 158, 214);">piece</text><text text-anchor="middle" transform="translate(-259,275)rotate(24.999999711185435)scale(1.000000030164656,1.000000030164656)" style="font-size: 10px; font-family: Impact; fill: rgb(57, 59, 121);">cryptographic</text><text text-anchor="middle" transform="translate(-432,153)rotate(24.999999711185435)scale(1.000000030164656,1.000000030164656)" style="font-size: 10px; font-family: Impact; fill: rgb(82, 84, 163);">information</text><text text-anchor="middle" transform="translate(429,86)rotate(24.999999711185435)scale(1.000000030164656,1.000000030164656)" style="font-size: 10px; font-family: Impact; fill: rgb(107, 110, 207);">encrypting</text><text text-anchor="middle" transform="translate(-427,-68)rotate(24.999999711185435)scale(1.000000030164656,1.000000030164656)" style="font-size: 10px; font-family: Impact; fill: rgb(156, 158, 222);">chosen</text><text text-anchor="middle" transform="translate(-209,275)rotate(24.999999711185435)scale(1.000000030164656,1.000000030164656)" style="font-size: 10px; font-family: Impact; fill: rgb(99, 121, 57);">Encryption</text><text text-anchor="middle" transform="translate(-296,-255)rotate(24.999999711185435)scale(1.000000030164656,1.000000030164656)" style="font-size: 10px; font-family: Impact; fill: rgb(140, 162, 82);">transformed</text><text text-anchor="middle" transform="translate(166,-103)rotate(24.999999711185435)scale(1.000000030164656,1.000000030164656)" style="font-size: 10px; font-family: Impact; fill: rgb(181, 207, 107);">else</text><text text-anchor="middle" transform="translate(-2,274)rotate(24.999999711185435)scale(1.000000030164656,1.000000030164656)" style="font-size: 10px; font-family: Impact; fill: rgb(206, 219, 156);">owner</text><text text-anchor="middle" transform="translate(111,16)rotate(24.999999711185435)scale(1.000000030164656,1.000000030164656)" style="font-size: 10px; font-family: Impact; fill: rgb(140, 109, 49);">read</text><text text-anchor="middle" transform="translate(-34,73)rotate(24.999999711185435)scale(1.000000030164656,1.000000030164656)" style="font-size: 10px; font-family: Impact; fill: rgb(189, 158, 57);">asks</text><text text-anchor="middle" transform="translate(-165,282)rotate(24.999999711185435)scale(1.000000030164656,1.000000030164656)" style="font-size: 10px; font-family: Impact; fill: rgb(231, 186, 82);">allowing</text><text text-anchor="middle" transform="translate(123,-48)rotate(24.999999711185435)scale(1.000000030164656,1.000000030164656)" style="font-size: 10px; font-family: Impact; fill: rgb(231, 203, 148);">others</text><text text-anchor="middle" transform="translate(270,90)rotate(24.999999711185435)scale(1.000000030164656,1.000000030164656)" style="font-size: 10px; font-family: Impact; fill: rgb(132, 60, 57);">verify</text><text text-anchor="middle" transform="translate(-237,214)rotate(24.999999711185435)scale(1.000000030164656,1.000000030164656)" style="font-size: 10px; font-family: Impact; fill: rgb(173, 73, 74);">trusted</text><text text-anchor="middle" transform="translate(138,-191)rotate(24.999999711185435)scale(1.000000030164656,1.000000030164656)" style="font-size: 10px; font-family: Impact; fill: rgb(214, 97, 107);">requests</text><text text-anchor="middle" transform="translate(-175,-217)rotate(24.999999711185435)scale(1.000000030164656,1.000000030164656)" style="font-size: 10px; font-family: Impact; fill: rgb(231, 150, 156);">given</text><text text-anchor="middle" transform="translate(40,-226)rotate(24.999999711185435)scale(1.000000030164656,1.000000030164656)" style="font-size: 10px; font-family: Impact; fill: rgb(123, 65, 115);">format</text><text text-anchor="middle" transform="translate(-330,87)rotate(24.999999711185435)scale(1.000000030164656,1.000000030164656)" style="font-size: 10px; font-family: Impact; fill: rgb(165, 81, 148);">instlled</text><text text-anchor="middle" transform="translate(88,40)rotate(24.999999711185435)scale(1.000000030164656,1.000000030164656)" style="font-size: 10px; font-family: Impact; fill: rgb(206, 109, 189);">web</text><text text-anchor="middle" transform="translate(316,-125)rotate(24.999999711185435)scale(1.000000030164656,1.000000030164656)" style="font-size: 10px; font-family: Impact; fill: rgb(222, 158, 214);">obtained</text><text text-anchor="middle" transform="translate(94,-262)rotate(24.999999711185435)scale(1.000000030164656,1.000000030164656)" style="font-size: 10px; font-family: Impact; fill: rgb(57, 59, 121);">sending</text><text text-anchor="middle" transform="translate(230,-85)rotate(24.999999711185435)scale(1.000000030164656,1.000000030164656)" style="font-size: 10px; font-family: Impact; fill: rgb(82, 84, 163);">Intro</text><text text-anchor="middle" transform="translate(-445,-5)rotate(24.999999711185435)scale(1.000000030164656,1.000000030164656)" style="font-size: 10px; font-family: Impact; fill: rgb(107, 110, 207);">company</text><text text-anchor="middle" transform="translate(-126,279)rotate(24.999999711185435)scale(1.000000030164656,1.000000030164656)" style="font-size: 10px; font-family: Impact; fill: rgb(156, 158, 222);">decided</text><text text-anchor="middle" transform="translate(-232,-274)rotate(24.999999711185435)scale(1.000000030164656,1.000000030164656)" style="font-size: 10px; font-family: Impact; fill: rgb(99, 121, 57);">webpages</text><text text-anchor="middle" transform="translate(-70,279)rotate(24.999999711185435)scale(1.000000030164656,1.000000030164656)" style="font-size: 10px; font-family: Impact; fill: rgb(140, 162, 82);">publicly</text><text text-anchor="middle" transform="translate(443,-80)rotate(24.999999711185435)scale(1.000000030164656,1.000000030164656)" style="font-size: 10px; font-family: Impact; fill: rgb(181, 207, 107);">accessible</text><text text-anchor="middle" transform="translate(187,9)rotate(24.999999711185435)scale(1.000000030164656,1.000000030164656)" style="font-size: 10px; font-family: Impact; fill: rgb(206, 219, 156);">anyone</text><text text-anchor="middle" transform="translate(-181,-32)rotate(24.999999711185435)scale(1.000000030164656,1.000000030164656)" style="font-size: 10px; font-family: Impact; fill: rgb(140, 109, 49);">see</text><text text-anchor="middle" transform="translate(398,34)rotate(24.999999711185435)scale(1.000000030164656,1.000000030164656)" style="font-size: 10px; font-family: Impact; fill: rgb(189, 158, 57);">content</text><text text-anchor="middle" transform="translate(-281,280)rotate(24.999999711185435)scale(1.000000030164656,1.000000030164656)" style="font-size: 10px; font-family: Impact; fill: rgb(231, 186, 82);">wanted</text><text text-anchor="middle" transform="translate(435,109)rotate(24.999999711185435)scale(1.000000030164656,1.000000030164656)" style="font-size: 10px; font-family: Impact; fill: rgb(231, 203, 148);">accessed</text><text text-anchor="middle" transform="translate(-443,71)rotate(24.999999711185435)scale(1.000000030164656,1.000000030164656)" style="font-size: 10px; font-family: Impact; fill: rgb(132, 60, 57);">employees</text><text text-anchor="middle" transform="translate(-331,278)rotate(24.999999711185435)scale(1.000000030164656,1.000000030164656)" style="font-size: 10px; font-family: Impact; fill: rgb(173, 73, 74);">ended</text><text text-anchor="middle" transform="translate(-218,-282)rotate(24.999999711185435)scale(1.000000030164656,1.000000030164656)" style="font-size: 10px; font-family: Impact; fill: rgb(214, 97, 107);">around</text><text text-anchor="middle" transform="translate(97,277)rotate(24.999999711185435)scale(1.000000030164656,1.000000030164656)" style="font-size: 10px; font-family: Impact; fill: rgb(231, 150, 156);">relatively</text><text text-anchor="middle" transform="translate(-310,-64)rotate(24.999999711185435)scale(1.000000030164656,1.000000030164656)" style="font-size: 10px; font-family: Impact; fill: rgb(123, 65, 115);">long</text><text text-anchor="middle" transform="translate(-254,-233)rotate(24.999999711185435)scale(1.000000030164656,1.000000030164656)" style="font-size: 10px; font-family: Impact; fill: rgb(165, 81, 148);">today</text><text text-anchor="middle" transform="translate(-138,128)rotate(24.999999711185435)scale(1.000000030164656,1.000000030164656)" style="font-size: 10px; font-family: Impact; fill: rgb(206, 109, 189);">yet</text><text text-anchor="middle" transform="translate(315,-46)rotate(24.999999711185435)scale(1.000000030164656,1.000000030164656)" style="font-size: 10px; font-family: Impact; fill: rgb(222, 158, 214);">seems</text><text text-anchor="middle" transform="translate(87,-282)rotate(24.999999711185435)scale(1.000000030164656,1.000000030164656)" style="font-size: 10px; font-family: Impact; fill: rgb(57, 59, 121);">popular</text><text text-anchor="middle" transform="translate(237,209)rotate(24.999999711185435)scale(1.000000030164656,1.000000030164656)" style="font-size: 10px; font-family: Impact; fill: rgb(82, 84, 163);">useful</text><text text-anchor="middle" transform="translate(-446,-41)rotate(24.999999711185435)scale(1.000000030164656,1.000000030164656)" style="font-size: 10px; font-family: Impact; fill: rgb(107, 110, 207);">access</text><text text-anchor="middle" transform="translate(-25,279)rotate(24.999999711185435)scale(1.000000030164656,1.000000030164656)" style="font-size: 10px; font-family: Impact; fill: rgb(156, 158, 222);">good</text><text text-anchor="middle" transform="translate(302,219)rotate(24.999999711185435)scale(1.000000030164656,1.000000030164656)" style="font-size: 10px; font-family: Impact; fill: rgb(99, 121, 57);">alternative</text><text text-anchor="middle" transform="translate(179,100)rotate(24.999999711185435)scale(1.000000030164656,1.000000030164656)" style="font-size: 10px; font-family: Impact; fill: rgb(140, 162, 82);">name</text><text text-anchor="middle" transform="translate(445,-94)rotate(24.999999711185435)scale(1.000000030164656,1.000000030164656)" style="font-size: 10px; font-family: Impact; fill: rgb(181, 207, 107);">password</text><text text-anchor="middle" transform="translate(258,269)rotate(24.999999711185435)scale(1.000000030164656,1.000000030164656)" style="font-size: 10px; font-family: Impact; fill: rgb(206, 219, 156);">mentioned</text><text text-anchor="middle" transform="translate(-68,-239)rotate(24.999999711185435)scale(1.000000030164656,1.000000030164656)" style="font-size: 10px; font-family: Impact; fill: rgb(140, 109, 49);">helps</text><text text-anchor="middle" transform="translate(-438,-174)rotate(24.999999711185435)scale(1.000000030164656,1.000000030164656)" style="font-size: 10px; font-family: Impact; fill: rgb(189, 158, 57);">uniquely</text><text text-anchor="middle" transform="translate(-289,-279)rotate(24.999999711185435)scale(1.000000030164656,1.000000030164656)" style="font-size: 10px; font-family: Impact; fill: rgb(231, 186, 82);">connecting</text><text text-anchor="middle" transform="translate(231,221)rotate(24.999999711185435)scale(1.000000030164656,1.000000030164656)" style="font-size: 10px; font-family: Impact; fill: rgb(231, 203, 148);">wait</text><text text-anchor="middle" transform="translate(-444,-118)rotate(24.999999711185435)scale(1.000000030164656,1.000000030164656)" style="font-size: 10px; font-family: Impact; fill: rgb(132, 60, 57);">theres</text><text text-anchor="middle" transform="translate(60,-280)rotate(24.999999711185435)scale(1.000000030164656,1.000000030164656)" style="font-size: 10px; font-family: Impact; fill: rgb(173, 73, 74);">trivial</text><text text-anchor="middle" transform="translate(61,273)rotate(24.999999711185435)scale(1.000000030164656,1.000000030164656)" style="font-size: 10px; font-family: Impact; fill: rgb(214, 97, 107);">Maybe</text><text text-anchor="middle" transform="translate(-298,-76)rotate(24.999999711185435)scale(1.000000030164656,1.000000030164656)" style="font-size: 10px; font-family: Impact; fill: rgb(231, 150, 156);">reason</text><text text-anchor="middle" transform="translate(444,40)rotate(24.999999711185435)scale(1.000000030164656,1.000000030164656)" style="font-size: 10px; font-family: Impact; fill: rgb(123, 65, 115);">often</text><text text-anchor="middle" transform="translate(-91,-25)rotate(24.999999711185435)scale(1.000000030164656,1.000000030164656)" style="font-size: 10px; font-family: Impact; fill: rgb(165, 81, 148);">try</text><text text-anchor="middle" transform="translate(-296,-268)rotate(24.999999711185435)scale(1.000000030164656,1.000000030164656)" style="font-size: 10px; font-family: Impact; fill: rgb(206, 109, 189);">explain</text><text text-anchor="middle" transform="translate(25,286)rotate(24.999999711185435)scale(1.000000030164656,1.000000030164656)" style="font-size: 10px; font-family: Impact; fill: rgb(222, 158, 214);">less</text><text text-anchor="middle" transform="translate(153,278)rotate(24.999999711185435)scale(1.000000030164656,1.000000030164656)" style="font-size: 10px; font-family: Impact; fill: rgb(57, 59, 121);">valid</text><text text-anchor="middle" transform="translate(-419,-271)rotate(24.999999711185435)scale(1.000000030164656,1.000000030164656)" style="font-size: 10px; font-family: Impact; fill: rgb(82, 84, 163);">Eventhough</text><text text-anchor="middle" transform="translate(-156,-222)rotate(24.999999711185435)scale(1.000000030164656,1.000000030164656)" style="font-size: 10px; font-family: Impact; fill: rgb(107, 110, 207);">connect</text><text text-anchor="middle" transform="translate(136,-286)rotate(24.999999711185435)scale(1.000000030164656,1.000000030164656)" style="font-size: 10px; font-family: Impact; fill: rgb(156, 158, 222);">clients</text><text text-anchor="middle" transform="translate(-139,139)rotate(24.999999711185435)scale(1.000000030164656,1.000000030164656)" style="font-size: 10px; font-family: Impact; fill: rgb(99, 121, 57);">go</text><text text-anchor="middle" transform="translate(234,271)rotate(24.999999711185435)scale(1.000000030164656,1.000000030164656)" style="font-size: 10px; font-family: Impact; fill: rgb(140, 162, 82);">screen</text><text text-anchor="middle" transform="translate(-383,281)rotate(24.999999711185435)scale(1.000000030164656,1.000000030164656)" style="font-size: 10px; font-family: Impact; fill: rgb(181, 207, 107);">unknown</text><text text-anchor="middle" transform="translate(425,-273)rotate(24.999999711185435)scale(1.000000030164656,1.000000030164656)" style="font-size: 10px; font-family: Impact; fill: rgb(206, 219, 156);">authoritybadcert</text><text text-anchor="middle" transform="translate(-447,192)rotate(24.999999711185435)scale(1.000000030164656,1.000000030164656)" style="font-size: 10px; font-family: Impact; fill: rgb(140, 109, 49);">already</text><text text-anchor="middle" transform="translate(-394,90)rotate(24.999999711185435)scale(1.000000030164656,1.000000030164656)" style="font-size: 10px; font-family: Impact; fill: rgb(189, 158, 57);">yes</text><text text-anchor="middle" transform="translate(-348,-275)rotate(24.999999711185435)scale(1.000000030164656,1.000000030164656)" style="font-size: 10px; font-family: Impact; fill: rgb(231, 186, 82);">force</text><text text-anchor="middle" transform="translate(366,272)rotate(24.999999711185435)scale(1.000000030164656,1.000000030164656)" style="font-size: 10px; font-family: Impact; fill: rgb(231, 203, 148);">homebrew</text><text text-anchor="middle" transform="translate(-109,-199)rotate(24.999999711185435)scale(1.000000030164656,1.000000030164656)" style="font-size: 10px; font-family: Impact; fill: rgb(132, 60, 57);">root</text><text text-anchor="middle" transform="translate(219,-72)rotate(24.999999711185435)scale(1.000000030164656,1.000000030164656)" style="font-size: 10px; font-family: Impact; fill: rgb(173, 73, 74);">store</text><text text-anchor="middle" transform="translate(-25,-282)rotate(24.999999711185435)scale(1.000000030164656,1.000000030164656)" style="font-size: 10px; font-family: Impact; fill: rgb(214, 97, 107);">harder</text><text text-anchor="middle" transform="translate(304,276)rotate(24.999999711185435)scale(1.000000030164656,1.000000030164656)" style="font-size: 10px; font-family: Impact; fill: rgb(231, 150, 156);">confuse</text><text text-anchor="middle" transform="translate(29,-176)rotate(24.999999711185435)scale(1.000000030164656,1.000000030164656)" style="font-size: 10px; font-family: Impact; fill: rgb(123, 65, 115);">🤷‍</text><text text-anchor="middle" transform="translate(-305,-17)rotate(24.999999711185435)scale(1.000000030164656,1.000000030164656)" style="font-size: 10px; font-family: Impact; fill: rgb(165, 81, 148);">☝️</text><text text-anchor="middle" transform="translate(-163,252)rotate(24.999999711185435)scale(1.000000030164656,1.000000030164656)" style="font-size: 10px; font-family: Impact; fill: rgb(206, 109, 189);">PROTIP</text><text text-anchor="middle" transform="translate(-103,244)rotate(24.999999711185435)scale(1.000000030164656,1.000000030164656)" style="font-size: 10px; font-family: Impact; fill: rgb(222, 158, 214);">follow</text><text text-anchor="middle" transform="translate(273,-224)rotate(24.999999711185435)scale(1.000000030164656,1.000000030164656)" style="font-size: 33px; font-family: Impact; fill: rgb(57, 59, 121);">pictureservercsr</text><text text-anchor="middle" transform="translate(386,-200)rotate(24.999999711185435)scale(1.000000030164656,1.000000030164656)" style="font-size: 24px; font-family: Impact; fill: rgb(82, 84, 163);">therefore</text><text text-anchor="middle" transform="translate(349,199)rotate(24.999999711185435)scale(1.000000030164656,1.000000030164656)" style="font-size: 24px; font-family: Impact; fill: rgb(107, 110, 207);">`certificate</text><text text-anchor="middle" transform="translate(-395,-202)rotate(24.999999711185435)scale(1.000000030164656,1.000000030164656)" style="font-size: 24px; font-family: Impact; fill: rgb(156, 158, 222);">Servers</text><text text-anchor="middle" transform="translate(372,255)rotate(24.999999711185435)scale(1.000000030164656,1.000000030164656)" style="font-size: 24px; font-family: Impact; fill: rgb(99, 121, 57);">noticed</text><text text-anchor="middle" transform="translate(-351,-208)rotate(24.999999711185435)scale(1.000000030164656,1.000000030164656)" style="font-size: 10px; font-family: Impact; fill: rgb(140, 162, 82);">src=assetsimgclientsidewordclo</text><text text-anchor="middle" transform="translate(-298,214)rotate(24.999999711185435)scale(1.000000030164656,1.000000030164656)" style="font-size: 33px; font-family: Impact; fill: rgb(181, 207, 107);">pictureservercrt</text><text text-anchor="middle" transform="translate(358,-247)rotate(24.999999711185435)scale(1.000000030164656,1.000000030164656)" style="font-size: 24px; font-family: Impact; fill: rgb(206, 219, 156);">pictureserverkey</text><text text-anchor="middle" transform="translate(411,-250)rotate(24.999999711185435)scale(1.000000030164656,1.000000030164656)" style="font-size: 24px; font-family: Impact; fill: rgb(231, 186, 82);">running</text><text text-anchor="middle" transform="translate(398,196)rotate(24.999999711185435)scale(1.000000030164656,1.000000030164656)" style="font-size: 24px; font-family: Impact; fill: rgb(140, 162, 82);">Create</text></g></svg>