<svg version="1.1" xmlns="http://www.w3.org/2000/svg">

	<symbol id="snail" viewBox="0 0 32 28">
			<g transform="translate(-110 -134.34)" shape-rendering="crispEdges">
		<g>
			<path d="m140 134.84h-2m-5.9999 0h-2m9.9999 0.99993h-2m-5.9999 0h-2m12 0.99994h-2m-2 0h-2m-2 0h-1.9999m-2 0h-2m14 0.99994h-2m-2 0h-2m-2 0h-1.9999m-2 0h-2m14 0.99994h-2m-2 0h-2m-2 0h-1.9999m-2 0h-2m14 0.99993h-2m-2 0h-2m-2 0h-1.9999m-2 0h-2m12 0.99994h-2m-5.9999 0h-2m-6.0001 0h-5.9999m22 0.99994h-2m-5.9999 0h-2m-6.0001 0h-5.9999m20 0.99994h-2m-2 0h-1.9999m-6 0h-2m-5.9999 0h-2m22 0.99993h-2m-2 0h-1.9999m-6 0h-2m-5.9999 0h-2m20 0.99994h-2m-5.9999 0h-2m-10 0h-2m22 0.99994h-2m-5.9999 0h-2m-10 0h-2m24 0.99994h-5.9999m-4 0h-2m-10 0h-2m24 0.99993h-5.9999m-4 0h-2m-10 0h-2m26 0.99994h-2m-5.9999 0h-2m-2 0h-2m-10 0h-2m26 0.99994h-2m-5.9999 0h-2m-2 0h-2m-10 0h-2m26 0.99994h-2m-5.9999 0h-2m-2 0h-2m-10 0h-2m26 0.99993h-2m-5.9999 0h-2m-2 0h-2m-10 0h-2m26 0.99994h-2m-5.9999 0h-2m-2 0h-2m-10 0h-2m26 0.99994h-2m-5.9999 0h-2m-2 0h-2m-10 0h-2m24 0.99994h-2m-5.9999 0h-4m-10 0h-2m24 0.99993h-2m-5.9999 0h-4m-10 0h-2m22 0.99994h-2m-7.9999 0h-2m-5.9999 0h-6m24 0.99994h-2m-7.9999 0h-2m-5.9999 0h-6m22 0.99994h-1.9999m-8.0001 0h-2m-9.9999 0h-2m24 0.99993h-1.9999m-8.0001 0h-2m-9.9999 0h-2m22 0.99994h-20m20 0.99994h-20" color="#000000" color-rendering="auto" dominant-baseline="auto" image-rendering="auto" solid-color="#000000" stop-color="#000000" style="font-feature-settings:normal;font-variant-alternates:normal;font-variant-caps:normal;font-variant-east-asian:normal;font-variant-ligatures:normal;font-variant-numeric:normal;font-variant-position:normal;font-variation-settings:normal;inline-size:0;isolation:auto;mix-blend-mode:normal;shape-margin:0;shape-padding:0;text-decoration-color:#000000;text-decoration-line:none;text-decoration-style:solid;text-indent:0;text-orientation:mixed;text-transform:none;white-space:normal"/>
			<path d="m140.01 134.34v2.0012h-2.0009v-2.0012zm-2.0009 2.0005v4.0024h-2.0009v-4.0024zm0 4.0007h2.0009v2.0012h-2.0009v-1.0042zm0 2.0005v2.0012h-2.0009v-2.0012zm-2.0009 2.0004v1.9941h2.0009v2.0012h-6.0028v-2.0012h2.0009v-1.9941zm-2.001 0h-2.0009v-2.0012h2.0009v0.99704zm-2.0009-2.0004h-2.0009v-2.0012h2.0009v0.99704zm0-2.0005v-4.0024h2.0009v4.0024zm0-4.0007h-2.0009v-2.0012h2.0009v0.99704zm-2.0009 0v4.0024h-2.001v-4.0024zm2.0009 11.995v6.0037h-2.0009v-6.0037zm-2.0009 6.0012v2.0012h-4.0019v-12h2.0009v9.999zm-4.0019-9.9947h-2.0009v-2.0012h2.0009v0.99704zm-2.0009-2.0004h-6.0028v-2.0012h6.0028v0.99704zm-6.0028 0v2.0012h-2.001v-2.0012zm-2.001 2.0004v12h2.001v2.0012h-6.0028v-2.0012h2.0009v-12zm-4.0018 13.995v2.0012h-1.9936v-2.0012zm0 2.0005h10.005v-2.0012h2.001v2.0012h8.0036v2.0012h-20.009v-1.0042zm20.009 0v-2.0012h2.0009v2.0012zm2.0009-2.0005v-2.0012h2.001v2.0012zm2.001-2.0004v-2.0012h2.0009v2.0012zm2.0009-2.0004v-6.0037h2.0009v6.0037zm-14.006 4.0007v-2.0012h2.0009v2.0012zm16.007-17.996v-4.0024h1.9936v4.0024z" color="#000000" color-rendering="auto" dominant-baseline="auto" image-rendering="auto" solid-color="#000000" stop-color="#000000" style="font-feature-settings:normal;font-variant-alternates:normal;font-variant-caps:normal;font-variant-east-asian:normal;font-variant-ligatures:normal;font-variant-numeric:normal;font-variant-position:normal;font-variation-settings:normal;inline-size:0;isolation:auto;mix-blend-mode:normal;shape-margin:0;shape-padding:0;text-decoration-color:#000000;text-decoration-line:none;text-decoration-style:solid;text-indent:0;text-orientation:mixed;text-transform:none;white-space:normal"/>
			<path d="m140 136.84h-2m-5.9999 0h-2m9.9999 0.99994h-2m-5.9999 0h-2m9.9999 0.99994h-2m-5.9999 0h-2m9.9999 0.99994h-2m-5.9999 0h-2m5.9999 8.9999h-3.9999m3.9999 0.99994h-3.9999m3.9999 0.99994h-3.9999m3.9999 0.99993h-3.9999m3.9999 0.99994h-3.9999m3.9999 0.99994h-3.9999m1.9999 0.99994h-3.9999m3.9999 0.99993h-3.9999m2 0.99994h-6m6 0.99994h-6m6 0.99994h-8.0001m8.0001 0.99993h-8.0001" color="#000000" color-rendering="auto" dominant-baseline="auto" image-rendering="auto" solid-color="#000000" stop-color="#000000" style="font-feature-settings:normal;font-variant-alternates:normal;font-variant-caps:normal;font-variant-east-asian:normal;font-variant-ligatures:normal;font-variant-numeric:normal;font-variant-position:normal;font-variation-settings:normal;inline-size:0;isolation:auto;mix-blend-mode:normal;shape-margin:0;shape-padding:0;text-decoration-color:#000000;text-decoration-line:none;text-decoration-style:solid;text-indent:0;text-orientation:mixed;text-transform:none;white-space:normal"/>
		</g>
		<path d="m140 136.34v4.0019h-2v-4.0019zm-7.9999 0v4.0019h-2v-4.0019zm3.9999 11.994v6.0029h-2v2.001h-1.9999v4.0019h-8.0001v-2.001h2v-2.001h4v-2.001h2v-6.0029z" color="#000000" color-rendering="auto" dominant-baseline="auto" fill="#ff9798" image-rendering="auto" solid-color="#000000" stop-color="#000000" style="font-feature-settings:normal;font-variant-alternates:normal;font-variant-caps:normal;font-variant-east-asian:normal;font-variant-ligatures:normal;font-variant-numeric:normal;font-variant-position:normal;font-variation-settings:normal;inline-size:0;isolation:auto;mix-blend-mode:normal;shape-margin:0;shape-padding:0;text-decoration-color:#000000;text-decoration-line:none;text-decoration-style:solid;text-indent:0;text-orientation:mixed;text-transform:none;white-space:normal"/>
		<path d="m124 142.84h-5.9999m5.9999 0.99993h-5.9999m7.9999 0.99994h-4m-3.9999 0h-2m10 0.99994h-4m-3.9999 0h-2m10 0.99994h-2m-2 0h-3.9999m7.9999 0.99993h-2m-2 0h-3.9999m7.9999 0.99994h-2m-2 0h-3.9999m7.9999 0.99994h-2m-2 0h-3.9999m7.9999 0.99994h-2m-2 0h-2m-1.9999 0h-2m10 0.99993h-2m-2 0h-2m-1.9999 0h-2m10 0.99994h-2m-4 0h-1.9999m7.9999 0.99994h-2m-4 0h-1.9999m7.9999 0.99994h-4m-2 0h-1.9999m7.9999 0.99993h-4m-2 0h-1.9999m5.9999 0.99994h-4m4 0.99994h-4m2 0.99994h-2m2 0.99993h-2" color="#000000" color-rendering="auto" dominant-baseline="auto" image-rendering="auto" solid-color="#000000" stop-color="#000000" style="font-feature-settings:normal;font-variant-alternates:normal;font-variant-caps:normal;font-variant-east-asian:normal;font-variant-ligatures:normal;font-variant-numeric:normal;font-variant-position:normal;font-variation-settings:normal;inline-size:0;isolation:auto;mix-blend-mode:normal;shape-margin:0;shape-padding:0;text-decoration-color:#000000;text-decoration-line:none;text-decoration-style:solid;text-indent:0;text-orientation:mixed;text-transform:none;white-space:normal"/>
		<path d="m124 142.34v2.0008h2v11.998h-2v2.0008h-2v2.0008h-2v-4.0016h2v-2.0008h2v-8.0032h-2v-1.9936h-3.9999v-2.0008zm-5.9999 2.0002v1.9936h-2v-1.9936zm0 1.9929h3.9999v6.0024h-2v-2.0008h-1.9999v-2.9976zm0 4.0006v2.0008h-2v-2.0008zm0 2.0004h1.9999v4.0016h-1.9999v-2.9976z" color="#000000" color-rendering="auto" dominant-baseline="auto" fill="#d38441" image-rendering="auto" solid-color="#000000" stop-color="#000000" style="font-feature-settings:normal;font-variant-alternates:normal;font-variant-caps:normal;font-variant-east-asian:normal;font-variant-ligatures:normal;font-variant-numeric:normal;font-variant-position:normal;font-variation-settings:normal;inline-size:0;isolation:auto;mix-blend-mode:normal;shape-margin:0;shape-padding:0;text-decoration-color:#000000;text-decoration-line:none;text-decoration-style:solid;text-indent:0;text-orientation:mixed;text-transform:none;white-space:normal"/>
		<path d="m122 144.84h-3.9999m3.9999 0.99993h-3.9999m5.9999 0.99994h-2m-3.9999 0h-2m7.9999 0.99994h-2m-3.9999 0h-2m7.9999 0.99994h-2m-3.9999 0h-2m7.9999 0.99993h-2m-3.9999 0h-2m7.9999 0.99994h-2m-2 0h-1.9999m5.9999 0.99994h-2m-2 0h-1.9999m5.9999 0.99994h-4m-1.9999 0h-2m7.9999 0.99993h-4m-1.9999 0h-2m5.9999 0.99994h-2m-1.9999 0h-2m5.9999 0.99994h-2m-1.9999 0h-2" color="#000000" color-rendering="auto" dominant-baseline="auto" image-rendering="auto" solid-color="#000000" stop-color="#000000" style="font-feature-settings:normal;font-variant-alternates:normal;font-variant-caps:normal;font-variant-east-asian:normal;font-variant-ligatures:normal;font-variant-numeric:normal;font-variant-position:normal;font-variation-settings:normal;inline-size:0;isolation:auto;mix-blend-mode:normal;shape-margin:0;shape-padding:0;text-decoration-color:#000000;text-decoration-line:none;text-decoration-style:solid;text-indent:0;text-orientation:mixed;text-transform:none;white-space:normal"/>
		<path d="m122 144.34v1.9942h-3.9999v-1.9942zm-3.9999 1.9937v4.0026h-2v-4.0026zm0 4.0025h1.9999v2.0013h-1.9999v-0.99708zm0 2.0013v4.0026h-2v-4.0026zm1.9999 0h2v-6.0039h2v8.0052h-2v2.0013h-2v-2.9984z" color="#000000" color-rendering="auto" dominant-baseline="auto" fill="#7e2072" image-rendering="auto" solid-color="#000000" stop-color="#000000" style="font-feature-settings:normal;font-variant-alternates:normal;font-variant-caps:normal;font-variant-east-asian:normal;font-variant-ligatures:normal;font-variant-numeric:normal;font-variant-position:normal;font-variation-settings:normal;inline-size:0;isolation:auto;mix-blend-mode:normal;shape-margin:0;shape-padding:0;text-decoration-color:#000000;text-decoration-line:none;text-decoration-style:solid;text-indent:0;text-orientation:mixed;text-transform:none;white-space:normal"/>
		<path d="m138 148.84h-2m2 0.99994h-2m2 0.99993h-2m2 0.99994h-2m2 0.99994h-2m2 0.99994h-2m0 0.99993h-2m2 0.99994h-2m0 0.99994h-1.9999m-12 0h-1.9999m16 0.99994h-1.9999m-12 0h-1.9999m1.9999 0.99993h-7.9999m7.9999 0.99994h-7.9999" color="#000000" color-rendering="auto" dominant-baseline="auto" image-rendering="auto" solid-color="#000000" stop-color="#000000" style="font-feature-settings:normal;font-variant-alternates:normal;font-variant-caps:normal;font-variant-east-asian:normal;font-variant-ligatures:normal;font-variant-numeric:normal;font-variant-position:normal;font-variation-settings:normal;inline-size:0;isolation:auto;mix-blend-mode:normal;shape-margin:0;shape-padding:0;text-decoration-color:#000000;text-decoration-line:none;text-decoration-style:solid;text-indent:0;text-orientation:mixed;text-transform:none;white-space:normal"/>
		<path d="m138 148.34v5.9996h-2v-5.9996zm-2 6v1.9999h-2v-1.9999zm-2 2v1.9999h-1.9999v-1.9999zm-14 0v3.9998h-7.9999v-1.9999h6v-1.9999z" color="#000000" color-rendering="auto" dominant-baseline="auto" fill="#8b4852" image-rendering="auto" solid-color="#000000" stop-color="#000000" style="font-feature-settings:normal;font-variant-alternates:normal;font-variant-caps:normal;font-variant-east-asian:normal;font-variant-ligatures:normal;font-variant-numeric:normal;font-variant-position:normal;font-variation-settings:normal;inline-size:0;isolation:auto;mix-blend-mode:normal;shape-margin:0;shape-padding:0;text-decoration-color:#000000;text-decoration-line:none;text-decoration-style:solid;text-indent:0;text-orientation:mixed;text-transform:none;white-space:normal"/>
	</g>
	</symbol>

	<symbol id="contact-me" shape-rendering="crispEdges" viewBox="0 0 16 16">
		<path d="m1 3v10h1v1h1v1h10v-1h1v-1h1v-10h-1v-1h-1v-1h-10v1h-1v1z" style="fill:#d38441;stroke-width:15"/>
		<path d="m3 0v1h10v-1h-10zm10 1v1h1v-1h-1zm1 1v1h1v-1h-1zm1 1v10h1v-10h-1zm0 10h-1v1h1v-1zm-1 1h-1v1h1v-1zm-1 1h-10v1h10v-1zm-10 0v-1h-1v1h1zm-1-1v-1h-1v1h1zm-1-1v-10h-1v10h1zm0-10h1v-1h-1v1zm1-1h1v-1h-1v1z" style="fill:#000000;stroke-width:3"/>
		<path d="m7 2v1h2v-1h-2zm2 1v3h1v-3h-1zm0 3h-2v1h2v-1zm-2 0v-3h-1v3h1z" style="fill:#000000;stroke-width:2"/>
		<path d="m7 3v3h2v-3h-2zm-3 9v1h1v-1h-1zm7 0v1h1v-1h-1z" style="fill:#edc7b0;stroke-width:.9"/>
		<path d="m6 8v1h-1v1h-1v2h2v1h4v-1h2v-2h-1v-1h-1v-1h-4z" style="fill:#000000;stroke-width:4"/>
		<path d="m12 1v1h1v-1h-1zm1 1v1h1v-1h-1zm1 1v10h1v-10h-1z" style="fill:#eeeeee;stroke-width:.9"/>
	</symbol>

	<symbol id="blog" shape-rendering="crispEdges" viewBox="0 0 16 16">
		<path d="m3 1v1h-1v1h-1v10h1v1h1v1h10v-1h1v-1h1v-10h-1v-1h-1v-1z" style="fill:#eeeeee"/>
		<path d="m3 1v1h-1v1h-1v1 8 1h1v1h1v1h2v-1h-1v-1h-1v-1h-1v-8h1v-1h1v-1h1v-1h-2z" style="fill:#edc7b0"/>
		<path d="m0 5v1h3v-1zm0 5v1h3v-1z" style="fill:#395c98"/>
		<path d="m13 3v1h-1v1h-1v1h-1v1h-1v1h-1v1h2v-1h1v-1h1v-1h1v-1h1v-1h1v-1h-2z" style="fill:#d38441"/>
		<path d="m14 4v1h1v-1h-1zm0 1h-1v1h1v-1zm-1 1h-1v1h1v-1zm-1 1h-1v1h1v-1zm-1 1h-1v1h1v-1zm-1 1h-1v1h1v-1z" style="fill:#e9c35b"/>
		<g id="blacks">
			<path d="m2 0v1h-1v1h-1v1 2h1v-2h1v-1h1v-1h10v1h1v1h1v10h-1v1h-1v1h-10v-1h-1v-1h-1v-2h-1v2 1h1v1h1v1h12v-1h1v-1h1v-1-10-1h-1v-1h-1v-1h-12zm-2 6v4h1v-4h-1z"/>
			<path d="m4 5v1h5v-1zm0 2v1h3v-1zm0 2v1h3v-1zm0 2v1h4v-1z"/>
			<path d="m8 9h1v1h-1z" style="fill:#000000"/>
		</g>
	</symbol>

	<symbol id="home" shape-rendering="crispEdges" viewBox="0 0 16 16">
		<path d="m6 0v1h-1v1h-1v1h-1v1h-1v1h-1v1h1 1v-1h1v-1h1v-1h1v-1h1v-1h1 2v-1h-2-2zm4 1v1h1v-1h-1zm1 1v1h1v-1h-1zm1 1v1h1v-1h-1zm1 1v1h1v-1h-1zm1 1v1h1v-1h-1zm1 1v1h1v-1h-1zm0 1h-1v8h-12v-8h-1v9h1 12 1v-9zm-14 0v-1h-1v1h1zm7 6v1h1v-1h-1z"/>
		<path d="m9 1v1h1v-1h-1zm1 1v1h1v-1h-1zm1 1v1h1v-1h-1zm1 1v1h1v-1h-1zm1 1v1h1v-1h-1zm-5 2v1h1v-1h-1z" style="fill:#eeeeee"/>
		<path d="m7 1v1h-1v1h-1v1h-1v1h-1v1h10v-1h-1v-1h-1v-1h-1v-1h-1v-1h-2zm0 11v1 1 1h2v-1h-1v-1h1v-1h-2z" style="fill:#8b4852"/>
		<path d="m1 6v1h1v8h1 1v-1h-1v-1h1v-1h-1v-1h1v-1h-1v-1h1v-1h-1v-2h-1-1zm6 0v1h1 1v-1h-1-1zm2 1v1 1h1v-1-1h-1zm0 2h-1-1v1h1 1v-1zm-2 0v-1-1h-1v1 1h1zm6-3v2h-1v1h1v1h-1v1h1v1h-1v1h1v1h-1v1h1 1v-8h1v-1h-1-1zm-6 5v1h1 1v-1h-1-1zm2 1v3h1v-3h-1zm-2 0h-1v3h1v-3z" style="fill:#d38441"/>
		<path d="m7 7v1 1h2v-1h-1v-1h-1z" style="fill:#a9c1ff"/>
		<path d="m3 6v1 1h1v1h-1v1h1v1h-1v1h1v1h-1v1h1v1h2v-1-1-1h1v-1h1 1v1h1v1 1 1h2v-1h1v-1h-1v-1h1v-1h-1v-1h1v-1h-1v-1h1v-1-1h-4v1h1v1 1h-1v1h-1-1v-1h-1v-1-1h1v-1h-4z" style="fill:#e9c35b"/>
	</symbol>

	<symbol id="dovydasxyz" viewBox="0 0 146 20">
	<g transform="translate(43 -22)">
		<path d="m73 26v3h1v1h1v1h-1v1h-1v3h3v-3h1v-1h1v1h1v3h3v-3h-1v-1h-1v-1h1v-1h1v-3h-3v3h-1v1h-1v-1h-1v-3h-3zm12 0v4h1v1h1v4h3v-4h1v-1h1v-4h-3v4h-3v-4h-3zm9 0v1h6v1h-1v1h-1v1h-1v1h-1v3h10v-1h-6v-1h1v-1h1v-1h1v-1h1v-3h-10zm-134 0.9v15h11v-2h2v-2h2v-6h-2v-2h-2v-2h-11zm18 0v2h-2v11h2v2h11v-2h2v-11h-2v-2h-11zm14 0v9h2v2h2v2h2v2h2v-2h2v-2h2v-2h2v-9h-4v6h-2v2h-2v-2h-2v-6h-4zm18 0v6h2v2h2v6h4v-6h2v-2h2v-6h-4v6h-4v-6h-4zm14 0v15h11v-2h2v-2h2v-6h-2v-2h-2v-2h-11zm21 0v2h-2v2h-2v11h4v-4h6v4h4v-11h-2v-2h-2v-2h-6zm14 0v2h-2v4h2v2h9v4h-6v-2h-4v2h2v2h11v-2h2v-4h-2v-2h-9v-4h6v2h4v-2h-2v-2h-11zm-95 2h4v2h2v6h-2v2h-4v-11zm16 0h6v11h-6v-11zm49 0h4v2h2v6h-2v2h-4v-11zm18 0h2v2h2v4h-6v-4h2v-2z" style="opacity:.9"/>
		<path d="m71 22v3h1v1h1v1h-1v1h-1v3h3v-3h1v-1h1v1h1v3h3v-3h-1v-1h-1v-1h1v-1h1v-3h-3v3h-1v1h-1v-1h-1v-3h-3zm12 0v4h1v1h1v4h3v-4h1v-1h1v-4h-3v4h-3v-4h-3zm9 0v1h6v1h-1v1h-1v1h-1v1h-1v3h10v-1h-6v-1h1v-1h1v-1h1v-1h1v-3h-10zm-134 0.9v15h11v-2h2v-2h2v-6h-2v-2h-2v-2h-11zm18 0v2h-2v11h2v2h11v-2h2v-11h-2v-2h-11zm14 0v9h2v2h2v2h2v2h2v-2h2v-2h2v-2h2v-9h-4v6h-2v2h-2v-2h-2v-6h-4zm18 0v6h2v2h2v6h4v-6h2v-2h2v-6h-4v6h-4v-6h-4zm14 0v15h11v-2h2v-2h2v-6h-2v-2h-2v-2h-11zm21 0v2h-2v2h-2v11h4v-4h6v4h4v-11h-2v-2h-2v-2h-6zm14 0v2h-2v4h2v2h9v4h-6v-2h-4v2h2v2h11v-2h2v-4h-2v-2h-9v-4h6v2h4v-2h-2v-2h-11zm-95 2h4v2h2v6h-2v2h-4v-11zm16 0h6v11h-6v-11zm49 0h4v2h2v6h-2v2h-4v-11zm18 0h2v2h2v4h-6v-4h2v-2z" style="fill:#e9c35b"/>
	</g>
	</symbol>

	<symbol id="updated" shape-rendering="crispEdges" viewBox="0 0 16 16">
		<path d="m4 2v1h-1v1h-1v8h1v1h1v1h8v-1h1v-1h1v-8h-1v-1h-1v-1h-7z" style="fill:#eeeeee"/>
		<path d="m2 0v1h-1v1h-1v1 10 1h1v1h1v1h12v-1h1v-1h1v-1-10-1h-1v-1h-1v-1h-3v1h2v1h1v1h1v10h-1v1h-1v1h-10v-1h-1v-1h-1v-10h1v-1h1v-1h2v-1h-3zm2 5v1h-1v1h1v1h1v-1h1v-1h-1v-1h-1zm5 0v1h1v-1h-1zm-2 2v1h1v-1h-1zm2 0v1h1v-1h-1zm-6 2v1h1v-1h-1zm2 0v1h1v-1h-1zm2 0v1h1v-1h-1zm2 0v1h1v-1h-1zm-6 2v1h1v-1h-1zm2 0v1h1v-1h-1zm2 0v1h1v-1h-1zm2 0v1h1v-1h-1z" style="fill:#000000"/>
		<path d="m6 0v1h4v-1z"/>
		<path d="m5 0v3h1v-3h-1zm5 0v3h1v-3h-1z" style="fill:#395c98"/>
		<path d="m3 1v1h-1v1h-1v1 8 1h1v1h1v1h10v-1h1v-1h1v-1-8-1h-1v-1h-1v-1h-2v1h1v1h1v1h1v8h-1v1h-1v1h-8v-1h-1v-1h-1v-8h1v-1h1v-1h1v-1h-2zm3 0v1h4v-1h-4z" style="fill:#edc7b0"/>
		<path d="m11 5v1h1v-1h-1zm0 2v1h1v-1h-1zm0 2v1h1v-1h-1zm0 2v1h1v-1h-1z" style="fill:#d4186c"/>
		<path d="m7 5h1v1h-1z" style="fill:#e9c35b"/>
	</symbol>

	<symbol id="created" shape-rendering="crispEdges" viewBox="0 0 16 16">
		<path d="m4 2v1h-1v1h-1v8h1v1h1v1h8v-1h1v-1h1v-8h-1v-1h-1v-1h-7z" style="fill:#eeeeee"/>
		<path d="m2 0v1h-1v1h-1v1 10 1h1v1h1v1h12v-1h1v-1h1v-1-10-1h-1v-1h-1v-1h-3v1h2v1h1v1h1v10h-1v1h-1v1h-10v-1h-1v-1h-1v-10h1v-1h1v-1h2v-1h-3zm4 0v1h4v-1h-4zm-3 5v1h1v-1h-1zm2 0v1h1v-1h-1zm2 0v1h1v-1h-1zm2 0v1h1v-1h-1zm-6 2v1h1v-1h-1zm4 0v1h1v-1h-1zm2 0v1h1v-1h-1zm-6 2v1h1v-1h-1zm2 0v1h1v-1h-1zm2 0v1h1v-1h-1zm2 0v1h1v-1h-1zm-6 2v1h1v-1h-1zm2 0v1h1v-1h-1zm2 0v1h1v-1h-1zm2 0v1h1v-1h-1z"/>
		<path d="m5 0v3h1v-3h-1zm5 0v3h1v-3h-1z" style="fill:#395c98"/>
		<path d="m3 1v1h-1v1h-1v1 8 1h1v1h1v1h10v-1h1v-1h1v-1-8-1h-1v-1h-1v-1h-2v1h1v1h1v1h1v8h-1v1h-1v1h-8v-1h-1v-1h-1v-8h1v-1h1v-1h1v-1h-2zm3 0v1h4v-1h-4z" style="fill:#edc7b0"/>
		<path d="m11 5v1h1v-1h-1zm0 2v1h1v-1h-1zm0 2v1h1v-1h-1zm0 2v1h1v-1h-1z" style="fill:#d4186c"/>
		<path d="m5 7h1v1h-1z" style="fill:#e9c35b"/>
	</symbol>

	<symbol id="projects" shape-rendering="crispEdges" viewBox="0 0 16 16">
		<path stroke="#000000" d="M7 0h2M3 1h1M6 1h1M9 1h1M12 1h1M2 2h1M4 2h1M6 2h1M9 2h1M11 2h1M13 2h1M1 3h1M5 3h1M10 3h1M14 3h1M2 4h1M13 4h1M3 5h1M7 5h2M12 5h1M1 6h2M6 6h1M9 6h1M13 6h2M0 7h1M5 7h1M10 7h1M15 7h1M0 8h1M5 8h1M10 8h1M15 8h1M1 9h2M6 9h1M9 9h1M13 9h2M3 10h1M7 10h2M12 10h1M2 11h1M13 11h1M1 12h1M5 12h1M10 12h1M14 12h1M2 13h1M4 13h1M6 13h1M9 13h1M11 13h1M13 13h1M3 14h1M6 14h1M9 14h1M12 14h1M7 15h2" />
		<path stroke="#70c6a9" d="M7 1h2M3 2h1M7 2h2M12 2h1M2 3h3M6 3h4M11 3h3M3 4h10M4 5h3M9 5h3M3 6h3M10 6h3M1 7h4M11 7h4M1 8h4M11 8h4M3 9h3M10 9h3M4 10h3M9 10h3M3 11h10M2 12h3M6 12h4M11 12h3M3 13h1M7 13h2M12 13h1M7 14h2" />
	</symbol>

	<symbol id="music" shape-rendering="crispEdges" viewBox="0 0 16 16">
	<path d="m2 0v1h-1v1h-1v12h1v1h1v1h12v-1h1v-1h1v-12h-1v-1h-1v-1h-12zm1 1h10v1h1v1h1v10h-1v1h-1v1h-10v-1h-1v-1h-1v-10h1v-1h1v-1z"/>
	<path d="m3 1v1h-1v1h-1v2h14v-2h-1v-1h-1v-1h-10zm-2 5v1h3v-1h-3zm6 0v1h2v-1h-2zm3 0v1h2v-1h-2zm3 0v1h2v-1h-2zm-12 2v1h3v-1h-3zm4 0v1h4v-1h-4zm5 0v1h1v-1h-1zm3 0v1h2v-1h-2zm-12 2v1h2v-1h-2zm4 0v1h3v-1h-3zm5 0v1h2v-1h-2zm3 0v1h2v-1h-2zm-12 2v1h1v1h1v1h10v-1h1v-1h1v-1h-2v1h-2v-1h-10z" style="fill:#e9c35b"/>
	<path d="m4 5v5h-1v2h2v-5h1v1h1v-2h-1v-1h-2zm5 0v5h-1v2h2v-4h1v-1h-1v-1h2v-1h-3zm3 1v2h-1v1h1v2h-1v2h2v-7h-1z"/>
	<path d="m1 5v1h3v-1h-3zm5 0v1h3v-1h-3zm6 0v1h3v-1h-3zm-11 2v1h3v-1h-3zm4 0v1h1v-1h-1zm2 0v1h2v-1h-2zm4 0v1h1v-1h-1zm2 0v1h2v-1h-2zm-12 2v1h3v-1h-3zm4 0v1h4v-1h-4zm5 0v1h2v-1h-2zm3 0v1h2v-1h-2zm-12 2v1h2v-1h-2zm4 0v1h3v-1h-3zm5 0v1h1v-1h-1zm3 0v1h2v-1h-2z" style="fill:#eeeeee"/>
	</symbol>


</svg>
